<svg xmlns:xlink="http://www.w3.org/1999/xlink" xmlns="http://www.w3.org/2000/svg" version="1.1" viewBox="0 0 1024 1024" height="1024px" width="1024px">
    <title>燃料</title>
    <g fill-rule="evenodd" fill="none" stroke-width="1" stroke="none" id="页面-1">
        <g fill-rule="nonzero" transform="translate(-0.480000, -1124.000000)" id="Pasted-20230719-101836">
            <g transform="translate(0.480000, 1124.000000)" id="燃料">
                <path fill="#FFC300" id="形状" d="M829.011425,805.230022 L830.946639,676.076003 C830.948538,673.882188 828.519494,672.091341 825.482506,672.047493 C821.384406,671.993779 818.348777,673.605183 816.375618,676.881704 C815.54082,678.278254 815.085475,679.701661 815.009584,681.151925 L808.179418,811.272787 C724.7755,834.423289 637.804716,848.200792 547.267069,852.605296 C542.865406,852.82015 540.740465,854.512124 540.892247,857.681218 L544.87651,936.720578 C544.953288,938.146065 546.110598,939.431366 547.903785,940.082651 C549.696973,940.733936 551.847097,940.649894 553.528054,939.862816 L700.376628,869.605607 C704.398837,867.618209 707.092958,868.316484 708.458991,871.700432 C725.762079,915.369477 734.60335,959.70994 734.982804,1004.72182 C734.972016,1008.11102 732.181845,1011.18741 727.832605,1012.6055 C723.483364,1014.02358 718.366518,1013.5253 714.719977,1011.32858 C690.700559,996.906512 696.847709,921.170531 698.213742,899.336008 C698.307716,897.774064 697.165172,896.305017 695.250313,895.525727 C693.335454,894.746438 690.966855,894.786555 689.106854,895.629779 L531.785358,964.275584 C530.20572,964.945114 528.23976,964.977641 526.637912,964.36075 C525.036064,963.743859 524.045566,962.572764 524.044503,961.294487 L524.044503,857.681218 C524.044503,855.317826 522.374907,854.028703 519.035715,853.813849 L424.551749,848.496216 C421.364338,848.335076 418.859944,849.167635 417.038566,850.993892 L246.853591,1022.04441 C244.197415,1024.73009 241.730966,1024.64952 239.454244,1021.8027 C216.004007,992.475152 159.655135,913.355222 169.558876,876.856924 C170.393675,873.902684 172.784233,871.888429 176.730551,870.81416 C210.767546,861.387447 236.039161,963.308742 239.112736,979.1005 C239.393579,980.582556 240.905254,981.799984 242.945809,982.187465 C244.986363,982.574947 247.156022,982.05657 248.447296,980.873044 L399.052462,847.609944 C399.909915,846.858049 400.163748,845.847781 399.725112,844.932755 C399.286476,844.01773 398.216453,843.325369 396.889576,843.098013 C360.082569,836.974679 324.67954,828.273098 290.680491,816.993271 L339.060835,698.796797 L346.118673,698.313376 C350.89979,698.044809 353.290348,696.191694 353.290348,692.754033 L353.290348,674.142318 C353.290348,670.812083 350.97568,668.878399 346.346346,668.341264 L219.532926,652.468936 L230.688864,591.960721 C231.012977,590.309948 232.351992,588.845761 234.336964,587.971595 C236.321935,587.097428 238.743383,586.905536 240.934113,587.44879 L392.67764,623.947087 C391.311606,634.260072 393.057093,644.062779 397.914101,653.355208 C398.369445,654.375764 399.318079,654.724901 400.760003,654.40262 C401.898364,654.134053 403.036725,653.838629 404.175086,653.516348 C406.148245,652.979214 406.793317,651.985515 406.1103,650.535251 C394.043673,623.785947 403.719742,603.777682 435.138506,590.510457 C447.584587,585.246538 446.82568,583.957415 432.861784,586.643088 C420.112141,589.113907 409.563328,594.162973 401.215348,601.790284 L228.639814,570.206768 C225.659045,569.654882 222.486467,570.049456 219.950091,571.287512 C217.413715,572.525567 215.765212,574.484257 215.434826,576.652384 L204.848069,650.1324 L80.083699,635.710336 C55.0397561,568.675935 66.7648748,513.163072 117.080433,451.204593 C179.310836,374.555482 260.286251,308.51478 360.006678,253.082487 C363.573543,251.095089 365.167248,251.712794 364.787794,254.935602 C363.421761,267.719406 357.843792,279.2678 348.053887,289.580785 C331.88916,258.561261 207.693971,382.639358 198.359411,394.805457 C197.245129,396.114854 197.757814,397.811576 199.531316,398.68386 C201.304818,399.556144 203.730391,399.304583 205.075741,398.108835 L264.839695,351.942115 C269.696702,348.235886 272.50466,348.880447 273.263567,353.875799 L274.174256,360.079704 C274.419437,361.509198 275.974712,362.650109 277.984348,362.874694 C279.993984,363.099278 281.970258,362.353031 282.8258,361.046546 L289.997474,349.444439 C294.019683,343.052537 297.055313,343.26739 299.104362,350.089 L308.780431,382.236507 C310.146465,386.748438 313.106203,387.366143 317.659647,384.089622 L430.129718,301.827454 C434.379599,298.712074 436.959884,299.302922 437.870573,303.599999 L447.546642,348.074745 C447.836053,349.403021 449.161817,350.50125 450.970356,350.910861 C452.778895,351.320473 454.759186,350.971024 456.08435,350.00843 L651.427103,204.498661 C660.30632,197.838191 663.190168,198.966174 660.078647,207.882609 C658.484942,212.340826 658.143434,216.66476 659.054122,220.85441 C660.116593,225.688622 662.658932,226.145186 666.681141,222.224103 L674.763505,214.247654 C676.433101,212.582537 678.292424,212.47511 680.341474,213.925373 L682.618196,215.456207 C683.984229,216.423049 684.098065,217.470462 682.959704,218.598445 C674.611723,226.494324 669.109645,235.303331 666.453469,245.025468 C665.163327,249.644826 666.984704,250.423671 671.917602,247.362004 L746.707922,200.792432 C748.393859,199.763865 750.761931,199.492131 752.800496,200.093315 C754.839061,200.6945 756.187654,202.062299 756.270155,203.612389 L767.426093,372.970935 C767.478328,373.831656 768.243303,374.589468 769.376828,374.903403 C770.510353,375.217338 771.798841,375.028243 772.662554,374.421199 L801.12158,354.35922 C802.976483,353.026509 805.82741,352.682225 808.201744,353.504204 C810.576077,354.326183 811.942219,356.13039 811.594501,357.984879 C808.862435,372.594941 808.90038,387.366143 811.708337,402.298485 C812.315463,405.199012 813.264098,405.252726 814.55424,402.459626 C818.272886,394.724887 820.132209,386.721581 820.132209,378.449708 C820.2081,377.268012 821.042898,376.54288 822.636603,376.274313 C830.377458,374.90462 864.52829,490.522847 869.309406,503.655789 C870.675439,507.523158 872.80038,507.738012 875.684228,504.30035 L909.038206,464.901526 C910.176966,463.589395 912.362551,462.929533 914.488823,463.255901 C916.615095,463.582269 918.218123,464.823657 918.486603,466.351789 L923.153883,495.518199 C923.988681,500.782118 926.417185,501.184969 930.439394,496.726752 L936.358871,490.281137 C938.939156,487.434323 941.329714,487.514893 943.530546,490.522847 L979.388918,539.267814 C983.183455,544.47802 985.801685,544.182596 987.243609,538.381542 C999.993253,486.413767 970.054358,430.739764 925.999786,389.810105 C924.873897,388.754027 923.010832,388.229544 921.167684,388.449789 C919.324536,388.670035 917.808022,389.598359 917.234406,390.857518 L883.994263,468.366044 C883.577699,469.317568 882.302258,469.927399 880.88687,469.851794 C879.471483,469.776188 878.270528,469.034075 877.96095,468.043763 L834.020214,283.940871 C833.518298,282.042656 831.443737,280.548001 828.771129,280.159074 C826.098521,279.770146 823.359079,280.56425 821.839751,282.168327 L800.324727,305.372543 C795.923064,310.099328 793.41867,309.642763 792.811544,304.00285 C784.387673,230.522833 793.836069,157.929089 790.534822,78.4868784 C790.383041,73.4378129 788.333991,73.0081052 784.387673,77.1977553 L690.928231,178.474488 C689.83717,179.763877 687.608831,180.325897 685.611577,179.815429 C683.614323,179.304961 682.407436,177.864949 682.732032,176.379663 L686.033279,156.075975 C687.247531,149.146938 684.325737,148.153239 677.267899,153.094877 L477.030193,293.367584 C471.717841,297.127526 469.479064,296.348681 470.313862,291.031048 L476.574848,250.423671 C476.769226,248.914456 475.586671,247.484692 473.632161,246.865825 C471.67765,246.246957 469.383477,246.575865 467.923304,247.684284 C436.58043,271.425635 405.427283,295.193842 374.463863,318.988906 C360.689695,329.543601 339.743852,334.216672 330.067783,350.814132 C328.625859,353.231238 326.425027,353.607232 323.465289,351.942115 C318.228828,349.041588 335.645752,318.586055 338.60549,313.751843 C337.315348,317.672926 338.226037,320.573453 341.337557,322.453424 C344.524968,324.387108 347.522652,324.225968 350.330609,321.970003 L524.386012,180.730454 C531.064396,175.305394 533.151392,176.084239 530.646997,183.066989 L507.538268,247.442574 C505.261546,253.673335 507.158815,254.37161 513.230074,249.537399 L820.132209,3.31488796 C826.582922,-1.84160442 829.54266,-0.982189024 829.011425,5.89313414 L809.431615,254.935602 C809.207932,255.698403 809.576211,256.487722 810.397727,257.006229 C811.219242,257.524737 812.369185,257.693659 813.414383,257.449366 C814.459582,257.205072 815.241245,256.584675 815.464929,255.821874 L834.13405,219.081866 C836.258991,214.838502 837.852696,214.945929 838.915166,219.404147 C853.486188,281.120915 888.77538,397.303133 874.887375,423.488446 C873.29367,426.388973 874.697648,427.839237 879.099311,427.839237 C888.77538,427.758667 906.647648,347.591324 909.835059,337.43948 C911.125201,333.24983 913.326033,333.008119 916.437553,336.714348 C1045.07235,490.845128 1103.2426,704.678421 829.011425,805.230022 Z M485.681736,369.022996 C454.376808,390.293527 419.315288,391.82436 393.132984,364.994486 C390.704481,362.469953 387.59296,361.932819 383.798424,363.383082 L348.167723,377.241155 C340.502759,380.249109 339.478234,384.089622 345.094148,388.762693 C399.583697,434.687703 459.119979,438.232792 523.702995,399.397959 C527.421641,397.141993 527.687259,394.751744 524.499848,392.227211 L495.585477,369.264706 C492.398067,366.740173 489.09682,366.659603 485.681736,369.022996 Z M661.900025,467.399202 C661.838659,468.72424 662.52401,470.012198 663.805119,470.979383 C665.086228,471.946567 666.858006,472.51364 668.730191,472.555694 L713.581616,473.683677 C717.907388,473.791104 719.994383,472.313983 719.842602,469.252316 C715.668611,397.276277 662.241533,364.323068 559.561368,370.392689 C555.918612,370.607543 554.400798,371.977236 555.007924,374.501769 L562.862615,405.037872 C563.697413,408.206966 566.353589,409.684087 570.831142,409.469233 C632.757982,406.461279 663.114277,425.771268 661.900025,467.399202 Z M690.359051,521.381231 L696.506201,525.00689 C700.376628,527.209142 703.222531,526.672007 705.043908,523.395486 L713.923124,507.684298 C715.668611,504.622631 714.340523,502.554663 709.938861,501.480393 L330.067783,407.696688 C325.742011,406.622419 321.757747,407.052127 318.114992,408.985812 L312.992367,411.644628 C309.577284,413.470886 309.083994,415.646281 311.512498,418.170814 C314.016892,420.695346 317.014576,422.199323 320.50555,422.682744 C326.349137,423.488446 328.056678,425.798125 325.628175,429.611781 C306.048365,460.389595 272.239042,534.433603 311.398662,560.860626 C364.104778,596.472651 429.446701,526.215443 451.417069,493.503944 C453.086665,490.925698 455.894623,489.448578 459.840941,489.072584 C478.510062,487.138899 483.974195,496.646182 479.762259,508.24829 C465.077402,547.969395 458.588744,610.330725 531.102342,615.487217 C603.843612,620.72428 649.719562,557.637818 681.365999,522.428644 C683.794502,519.689257 686.792186,519.34012 690.359051,521.381231 Z M269.146115,522.282006 C271.237911,517.75262 268.136808,512.227246 260.525021,506.921417 C252.913235,501.615588 241.41429,496.963936 228.557852,493.989783 C215.701292,491.015644 202.54043,489.962676 191.970583,491.062525 C181.400735,492.162374 174.287755,495.324944 172.196459,499.854487 C170.104663,504.383873 173.205766,509.909247 180.817553,515.215076 C188.429339,520.520905 199.928284,525.172557 212.784722,528.14671 C225.641282,531.120849 238.802144,532.173817 249.371991,531.073968 C259.941839,529.974119 267.054819,526.811549 269.146115,522.282006 L269.146115,522.282006 Z M760.779203,635.148761 C765.254042,625.791881 747.496011,613.083254 721.115289,606.763077 C708.446609,603.72807 695.443165,602.602369 684.965575,603.633616 C674.487985,604.664863 667.394521,607.768583 665.245668,612.261992 C660.770829,621.618872 678.52886,634.327499 704.909582,640.647677 C717.578263,643.682684 730.581706,644.808385 741.059297,643.777138 C751.536887,642.745891 758.630351,639.64217 760.779203,635.148761 L760.779203,635.148761 Z"></path>
                <path fill="#FF3900" id="路径" d="M348.053887,289.580785 L338.60549,313.751843 C335.645752,318.586055 318.228828,349.041588 323.465289,351.942115 C326.425027,353.607232 328.625859,353.231238 330.067783,350.814132 C339.743852,334.216672 360.689695,329.543601 374.463863,318.988906 C405.427283,295.193842 436.58043,271.425635 467.923304,247.684284 C469.383477,246.575865 471.67765,246.246957 473.632161,246.865825 C475.586671,247.484692 476.769226,248.914456 476.574848,250.423671 L470.313862,291.031048 C469.479064,296.348681 471.717841,297.127526 477.030193,293.367584 L677.267899,153.094877 C684.325737,148.153239 687.247531,149.146938 686.033279,156.075975 L682.732032,176.379663 C682.407436,177.864949 683.614323,179.304961 685.611577,179.815429 C687.608831,180.325897 689.83717,179.763877 690.928231,178.474488 L784.387673,77.1977553 C788.333991,73.0081052 790.383041,73.4378129 790.534822,78.4868784 C793.836069,157.929089 784.387673,230.522833 792.811544,304.00285 C793.41867,309.642763 795.923064,310.099328 800.324727,305.372543 L821.839751,282.168327 C823.359079,280.56425 826.098521,279.770146 828.771129,280.159074 C831.443737,280.548001 833.518298,282.042656 834.020214,283.940871 L877.96095,468.043763 C878.270528,469.034075 879.471483,469.776188 880.88687,469.851794 C882.302258,469.927399 883.577699,469.317568 883.994263,468.366044 L917.234406,390.857518 C917.808022,389.598359 919.324536,388.670035 921.167684,388.449789 C923.010832,388.229544 924.873897,388.754027 925.999786,389.810105 C970.054358,430.739764 999.993253,486.413767 987.243609,538.381542 C985.801685,544.182596 983.183455,544.47802 979.388918,539.267814 L943.530546,490.522847 C941.329714,487.514893 938.939156,487.434323 936.358871,490.281137 L930.439394,496.726752 C926.417185,501.184969 923.988681,500.782118 923.153883,495.518199 L918.486603,466.351789 C918.218123,464.823657 916.615095,463.582269 914.488823,463.255901 C912.362551,462.929533 910.176966,463.589395 909.038206,464.901526 L875.684228,504.30035 C872.80038,507.738012 870.675439,507.523158 869.309406,503.655789 C864.52829,490.522847 830.377458,374.90462 822.636603,376.274313 C821.042898,376.54288 820.2081,377.268012 820.132209,378.449708 C820.132209,386.721581 818.272886,394.724887 814.55424,402.459626 C813.264098,405.252726 812.315463,405.199012 811.708337,402.298485 C808.90038,387.366143 808.862435,372.594941 811.594501,357.984879 C811.942219,356.13039 810.576077,354.326183 808.201744,353.504204 C805.82741,352.682225 802.976483,353.026509 801.12158,354.35922 L772.662554,374.421199 C771.798841,375.028243 770.510353,375.217338 769.376828,374.903403 C768.243303,374.589468 767.478328,373.831656 767.426093,372.970935 L756.270155,203.612389 C756.187654,202.062299 754.839061,200.6945 752.800496,200.093315 C750.761931,199.492131 748.393859,199.763865 746.707922,200.792432 L671.917602,247.362004 C666.984704,250.423671 665.163327,249.644826 666.453469,245.025468 C669.109645,235.303331 674.611723,226.494324 682.959704,218.598445 C684.098065,217.470462 683.984229,216.423049 682.618196,215.456207 L680.341474,213.925373 C678.292424,212.47511 676.433101,212.582537 674.763505,214.247654 L666.681141,222.224103 C662.658932,226.145186 660.116593,225.688622 659.054122,220.85441 C658.143434,216.66476 658.484942,212.340826 660.078647,207.882609 C663.190168,198.966174 660.30632,197.838191 651.427103,204.498661 L456.08435,350.00843 C454.759186,350.971024 452.778895,351.320473 450.970356,350.910861 C449.161817,350.50125 447.836053,349.403021 447.546642,348.074745 L437.870573,303.599999 C436.959884,299.302922 434.379599,298.712074 430.129718,301.827454 L317.659647,384.089622 C313.106203,387.366143 310.146465,386.748438 308.780431,382.236507 L299.104362,350.089 C297.055313,343.26739 294.019683,343.052537 289.997474,349.444439 L282.8258,361.046546 C281.970258,362.353031 279.993984,363.099278 277.984348,362.874694 C275.974712,362.650109 274.419437,361.509198 274.174256,360.079704 L273.263567,353.875799 C272.50466,348.880447 269.696702,348.235886 264.839695,351.942115 L205.075741,398.108835 C203.730391,399.304583 201.304818,399.556144 199.531316,398.68386 C197.757814,397.811576 197.245129,396.114854 198.359411,394.805457 C207.693971,382.639358 331.88916,258.561261 348.053887,289.580785 Z"></path>
                <path fill="#F01904" id="路径" d="M393.132984,364.994486 C419.315288,391.82436 454.376808,390.293527 485.681736,369.022996 C489.09682,366.659603 492.398067,366.740173 495.585477,369.264706 L524.499848,392.227211 C527.687259,394.751744 527.421641,397.141993 523.702995,399.397959 C459.119979,438.232792 399.583697,434.687703 345.094148,388.762693 C339.478234,384.089622 340.502759,380.249109 348.167723,377.241155 L383.798424,363.383082 C387.59296,361.932819 390.704481,362.469953 393.132984,364.994486 Z"></path>
                <path fill="#F01904" id="路径" d="M661.900025,467.399202 C663.114277,425.771268 632.757982,406.461279 570.831142,409.469233 C566.353589,409.684087 563.697413,408.206966 562.862615,405.037872 L555.007924,374.501769 C554.400798,371.977236 555.918612,370.607543 559.561368,370.392689 C662.241533,364.323068 715.668611,397.276277 719.842602,469.252316 C719.994383,472.313983 717.907388,473.791104 713.581616,473.683677 L668.730191,472.555694 C666.858006,472.51364 665.086228,471.946567 663.805119,470.979383 C662.52401,470.012198 661.838659,468.72424 661.900025,467.399202 L661.900025,467.399202 Z"></path>
                <path fill="#260E24" id="形状" d="M681.365999,522.428644 C649.719562,557.637818 603.843612,620.72428 531.102342,615.487217 C458.588744,610.330725 465.077402,547.969395 479.762259,508.24829 C483.974195,496.646182 478.510062,487.138899 459.840941,489.072584 C455.894623,489.448578 453.086665,490.925698 451.417069,493.503944 C429.446701,526.215443 364.104778,596.472651 311.398662,560.860626 C272.239042,534.433603 306.048365,460.389595 325.628175,429.611781 C328.056678,425.798125 326.349137,423.488446 320.50555,422.682744 C317.014576,422.199323 314.016892,420.695346 311.512498,418.170814 C309.083994,415.646281 309.577284,413.470886 312.992367,411.644628 L318.114992,408.985812 C321.757747,407.052127 325.742011,406.622419 330.067783,407.696688 L709.938861,501.480393 C714.340523,502.554663 715.668611,504.622631 713.923124,507.684298 L705.043908,523.395486 C703.222531,526.672007 700.376628,527.209142 696.506201,525.00689 L690.359051,521.381231 C686.792186,519.34012 683.794502,519.689257 681.365999,522.428644 Z M497.8622,468.688325 C497.8622,463.126114 491.49143,458.617051 483.632687,458.617051 C475.773944,458.617051 469.403174,463.126114 469.403174,468.688325 C469.403174,474.250536 475.773944,478.759599 483.632687,478.759599 C491.49143,478.759599 497.8622,474.250536 497.8622,468.688325 Z"></path>
                <ellipse ry="10.0712742" rx="14.229513" cy="468.688325" cx="483.632687" fill="#FFC300" id="椭圆形"></ellipse>
                <ellipse ry="19.1988323" rx="49.6094217" cy="511.068247" cx="220.671287" transform="translate(220.671287, 511.068247) rotate(18.100000) translate(-220.671287, -511.068247)" fill="#FF3900" id="椭圆形"></ellipse>
                <path fill="#FFFFFF" id="路径" d="M401.215348,601.790284 L392.67764,623.947087 L240.934113,587.44879 C238.743383,586.905536 236.321935,587.097428 234.336964,587.971595 C232.351992,588.845761 231.012977,590.309948 230.688864,591.960721 L219.532926,652.468936 L204.848069,650.1324 L215.434826,576.652384 C215.765212,574.484257 217.413715,572.525567 219.950091,571.287512 C222.486467,570.049456 225.659045,569.654882 228.639814,570.206768 L401.215348,601.790284 Z"></path>
                <path fill="#F01904" id="路径" d="M392.67764,623.947087 L401.215348,601.790284 C409.563328,594.162973 420.112141,589.113907 432.861784,586.643088 C446.82568,583.957415 447.584587,585.246538 435.138506,590.510457 C403.719742,603.777682 394.043673,623.785947 406.1103,650.535251 C406.793317,651.985515 406.148245,652.979214 404.175086,653.516348 C403.036725,653.838629 401.898364,654.134053 400.760003,654.40262 C399.318079,654.724901 398.369445,654.375764 397.914101,653.355208 C393.057093,644.062779 391.311606,634.260072 392.67764,623.947087 Z"></path>
                <ellipse ry="19.1796797" rx="48.9669004" cy="623.705377" cx="713.012436" transform="translate(713.012436, 623.705377) rotate(18.700000) translate(-713.012436, -623.705377)" fill="#FF3900" id="椭圆形"></ellipse>
                <path fill="#260E24" id="路径" d="M80.083699,635.710336 L204.848069,650.1324 L219.532926,652.468936 L346.346346,668.341264 C350.97568,668.878399 353.290348,670.812083 353.290348,674.142318 L353.290348,692.754033 C353.290348,696.191694 350.89979,698.044809 346.118673,698.313376 L339.060835,698.796797 C246.7777,684.079308 153.811549,671.993779 60.1623808,662.54021 L42.0624403,658.995122 C37.9643406,658.18942 36.2188537,656.309448 36.8259795,653.355208 L40.0133905,636.838318 C40.6205163,633.45437 43.3146375,632.004107 48.0957538,632.487528 L80.083699,635.710336 Z"></path>
                <path fill="#00B7AD" id="形状" d="M60.1623808,662.54021 C153.811549,671.993779 246.7777,684.079308 339.060835,698.796797 L290.680491,816.993271 L274.06042,849.060208 C272.618496,851.745881 269.924375,852.847007 265.978056,852.363586 L64.9434972,828.837089 C60.2382715,828.299954 57.8856587,826.36627 57.8856587,823.036035 L57.3164782,789.438265 C78.5658842,792.768499 88.1660623,788.847416 86.1170125,777.675016 L85.3201597,766.959181 C88.4316799,759.600436 86.686193,753.450245 80.083699,748.508606 L82.9296016,737.067639 C86.6482476,730.998018 86.4964661,724.847826 82.4742571,718.617065 L79.6283545,708.54579 C89.0767512,694.929428 70.293794,692.834603 57.3164782,690.095216 L60.1623808,662.54021 Z M271.328353,739.887596 L265.978056,721.920443 C265.37093,719.718191 263.473662,718.617065 260.286251,718.617065 L255.391299,718.617065 C252.934571,718.617065 250.623567,719.442075 249.163942,720.840712 C247.704316,722.239349 247.269385,724.045343 247.991952,725.707242 L260.058579,752.939967 C261.576394,756.270202 264.725859,757.639895 269.506976,757.049047 C277.247831,756.135918 284.45745,754.336517 291.135835,751.650844 C302.595336,747.0852 301.760538,744.802377 288.631441,744.802377 L279.866061,744.802377 C275.160835,744.802377 272.314933,743.164117 271.328353,739.887596 Z M230.575028,748.105755 L238.771228,742.304701 C244.15947,738.437332 243.059054,736.127653 235.469981,735.375665 L224.427878,734.328252 C222.985954,734.220825 221.885539,733.710547 221.126631,732.797419 L217.028532,727.882637 C215.966061,726.647227 214.486192,726.244376 212.588924,726.674084 L209.287677,727.399216 C205.113686,728.312345 203.44409,730.299743 204.278888,733.36141 L211.905907,760.352425 C212.816596,763.682659 215.662498,765.186636 220.443615,764.864356 C231.371881,764.219794 241.503294,761.990685 250.837855,758.17703 C259.565289,754.631941 258.882273,752.859397 248.788805,752.859397 L233.307095,752.859397 C227.008163,752.859397 226.097475,751.27485 230.575028,748.105755 Z M173.201632,758.902161 C171.683817,758.902161 170.203948,758.902161 168.762024,758.902161 C164.056798,758.955875 161.476513,757.317614 161.021169,753.987379 L159.199791,741.90185 C158.820337,739.10875 156.657451,737.443633 152.711133,736.906498 C136.318734,734.569963 146.450147,759.869004 149.751394,766.153479 C151.193318,768.946579 153.925385,770.74598 157.947594,771.551682 C172.366834,774.613349 185.268259,772.169386 196.651869,764.219794 C200.142843,761.802688 201.319149,758.902161 200.180788,755.518213 L192.439933,733.683691 C191.832807,732.072287 190.390883,731.051731 188.114161,730.622023 L184.92675,729.977462 C181.208104,729.225473 179.348781,730.246029 179.348781,733.039129 L179.804126,754.14852 C179.880017,757.317614 177.679185,758.902161 173.201632,758.902161 Z M124.365943,753.342818 C129.981858,751.35542 134.269684,748.48175 137.229423,744.721807 C141.251632,739.565315 139.240528,737.604773 131.19611,738.840183 L101.143378,743.352114 C95.6033544,744.157816 93.5163592,746.521208 94.8823924,750.442291 L105.241478,780.575543 C108.428889,789.867972 112.337262,790.002256 116.966597,780.978394 C120.38168,774.156785 121.292369,767.093464 119.698663,759.788433 C119.091537,756.834193 120.647297,754.685654 124.365943,753.342818 Z"></path>
                <path fill="#F01904" id="路径" d="M829.011425,805.230022 L828.100736,823.358316 C818.083159,856.069814 813.947114,889.640728 815.692601,924.071058 L808.179418,811.272787 L815.009584,681.151925 C815.085475,679.701661 815.54082,678.278254 816.375618,676.881704 C818.348777,673.605183 821.384406,671.993779 825.482506,672.046193 C828.519494,672.091341 830.948538,673.882188 830.94664,676.076003 L829.011425,805.230022 Z"></path>
                <path fill="#FFC300" id="路径" d="M57.3164782,690.095216 C70.293794,692.834603 89.0767512,694.929428 79.6283545,708.54579 C60.8453974,706.048114 25.3285331,701.536184 24.0763359,707.176097 C23.5451008,709.646916 24.9870248,711.09718 28.4021079,711.526888 L82.4742571,718.617065 C86.4964661,724.847826 86.6482476,730.998018 82.9296016,737.067639 L3.69967337,736.745358 C6.35584912,720.040471 13.6034144,704.544137 25.4423692,690.256357 C27.491419,687.731824 30.6029392,686.711268 34.7769297,687.194689 L57.3164782,690.095216 Z"></path>
                <path fill="#F01904" id="路径" d="M79.6283545,708.54579 L82.4742571,718.617065 L28.4021079,711.526888 C24.9870248,711.09718 23.5451008,709.646916 24.0763359,707.176097 C25.3285331,701.536184 60.8453974,706.048114 79.6283545,708.54579 Z"></path>
                <path fill="#FFFFFF" id="路径" d="M279.866061,744.802377 L288.631441,744.802377 C301.760538,744.802377 302.595336,747.0852 291.135835,751.650844 C284.45745,754.336517 277.247831,756.135918 269.506976,757.049047 C264.725859,757.639895 261.576394,756.270202 260.058579,752.939967 L247.991952,725.707242 C247.269385,724.045343 247.704316,722.239349 249.163942,720.840712 C250.623567,719.442075 252.934571,718.617065 255.391299,718.617065 L260.286251,718.617065 C263.473662,718.617065 265.37093,719.718191 265.978056,721.920443 L271.328353,739.887596 C272.314933,743.164117 275.160835,744.802377 279.866061,744.802377 Z"></path>
                <path fill="#FFFFFF" id="路径" d="M233.307095,752.859397 L248.788805,752.859397 C258.882273,752.859397 259.565289,754.631941 250.837855,758.17703 C241.503294,761.990685 231.371881,764.219794 220.443615,764.864356 C215.662498,765.186636 212.816596,763.682659 211.905907,760.352425 L204.278888,733.36141 C203.44409,730.299743 205.113686,728.312345 209.287677,727.399216 L212.588924,726.674084 C214.486192,726.244376 215.966061,726.647227 217.028532,727.882637 L221.126631,732.797419 C221.885539,733.710547 222.985954,734.220825 224.427878,734.328252 L235.469981,735.375665 C243.059054,736.127653 244.15947,738.437332 238.771228,742.304701 L230.575028,748.105755 C226.097475,751.27485 227.008163,752.859397 233.307095,752.859397 Z"></path>
                <path fill="#FFFFFF" id="路径" d="M179.804126,754.14852 L179.348781,733.039129 C179.348781,730.246029 181.208104,729.225473 184.92675,729.977462 L188.114161,730.622023 C190.390883,731.051731 191.832807,732.072287 192.439933,733.683691 L200.180788,755.518213 C201.319149,758.902161 200.142843,761.802688 196.651869,764.219794 C185.268259,772.169386 172.366834,774.613349 157.947594,771.551682 C153.925385,770.74598 151.193318,768.946579 149.751394,766.153479 C146.450147,759.869004 136.318734,734.569963 152.711133,736.906498 C156.657451,737.443633 158.820337,739.10875 159.199791,741.90185 L161.021169,753.987379 C161.476513,757.317614 164.056798,758.955875 168.762024,758.902161 C170.203948,758.902161 171.683817,758.902161 173.201632,758.902161 C177.679185,758.902161 179.880017,757.317614 179.804126,754.14852 Z"></path>
                <path fill="#F01904" id="路径" d="M3.69967337,736.745358 L82.9296016,737.067639 L80.083699,748.508606 C54.6603025,743.674395 29.1989606,743.110403 3.69967337,746.816632 L3.69967337,736.745358 Z"></path>
                <path fill="#FFFFFF" id="路径" d="M119.698663,759.788433 C121.292369,767.093464 120.38168,774.156785 116.966597,780.978394 C112.337262,790.002256 108.428889,789.867972 105.241478,780.575543 L94.8823924,750.442291 C93.5163592,746.521208 95.6033544,744.157816 101.143378,743.352114 L131.19611,738.840183 C139.240528,737.604773 141.251632,739.565315 137.229423,744.721807 C134.269684,748.48175 129.981858,751.35542 124.365943,753.342818 C120.647297,754.685654 119.091537,756.834193 119.698663,759.788433 Z"></path>
                <path fill="#FFC300" id="路径" d="M80.083699,748.508606 C86.686193,753.450245 88.4316799,759.600436 85.3201597,766.959181 L3.69967337,760.916416 C-1.23322446,756.350772 -1.23322446,751.650844 3.69967337,746.816632 C29.1989606,743.110403 54.6603025,743.674395 80.083699,748.508606 Z"></path>
                <path fill="#F01904" id="路径" d="M3.69967337,760.916416 L85.3201597,766.959181 L86.1170125,777.675016 C60.9212882,770.74598 36.1429629,768.624298 11.7820367,771.309971 C4.80008904,769.698567 2.10596792,766.234049 3.69967337,760.916416 Z"></path>
                <path fill="#FFC300" id="路径" d="M86.1170125,777.675016 C88.1660623,788.847416 78.5658842,792.768499 57.3164782,789.438265 C36.4465259,789.706832 21.2683787,783.664067 11.7820367,771.309971 C36.1429629,768.624298 60.9212882,770.74598 86.1170125,777.675016 Z"></path>
                <path fill="#FFC300" id="路径" d="M828.100736,823.358316 C837.814751,827.816533 839.066948,835.927266 831.857328,847.690514 C871.32051,857.573791 888.889216,877.582056 884.563444,907.715308 C883.956318,912.227239 886.005368,912.925514 890.710593,909.810133 C900.576389,903.310805 909.607387,903.982223 917.803586,911.824388 C920.535653,914.456348 923.874845,914.912912 927.821163,913.194082 L981.779476,889.828725 C942.392185,933.121776 887.029893,944.535887 815.692601,924.071058 C813.947114,889.640728 818.083159,856.069814 828.100736,823.358316 Z"></path>
                <path fill="#F01904" id="形状" d="M831.857328,847.690514 C863.200202,847.31452 883.235356,858.56749 891.962791,881.449425 C920.345926,880.643723 940.798479,870.679876 953.32045,851.557884 C954.686484,850.967036 955.597173,849.839053 956.052517,848.173936 C957.646222,842.587735 960.719797,843.393437 965.273241,850.591041 L976.087671,867.671922 L936.472707,897.402324 C932.071044,900.678845 928.352398,900.329707 925.316769,896.354911 C920.156199,889.587015 910.669857,887.760757 896.857743,890.876138 C894.960475,891.305846 893.973895,892.245831 893.898004,893.696095 C893.822114,894.39437 893.860059,895.119502 894.01184,895.87149 C894.770748,899.577719 897.692541,900.974269 902.77722,900.06114 C911.884109,898.50345 918.638384,899.953713 923.040047,904.41193 C926.303349,907.634738 930.05994,907.957019 934.309821,905.378773 L982.690165,875.728942 C988.989096,880.079732 988.685533,884.77966 981.779476,889.828725 L927.821163,913.194082 C923.874845,914.912912 920.535653,914.456348 917.803586,911.824388 C909.607387,903.982223 900.576389,903.310805 890.710593,909.810133 C886.005368,912.925514 883.956318,912.227239 884.563444,907.715308 C888.889216,877.582056 871.32051,857.573791 831.857328,847.690514 Z M948.425498,867.510782 L921.332505,886.041926 C912.149726,892.326401 913.553705,893.910949 925.544441,890.795568 C939.660118,887.143052 950.095094,880.885434 956.84937,872.022713 C958.080419,870.380937 957.446012,868.349503 955.351976,867.227911 C953.25794,866.10632 950.32337,866.226165 948.425498,867.510782 L948.425498,867.510782 Z"></path>
                <path fill="#FFC300" id="路径" d="M953.32045,851.557884 C940.798479,870.679876 920.345926,880.643723 891.962791,881.449425 C909.038206,866.463369 929.490759,856.499522 953.32045,851.557884 Z"></path>
                <path fill="#FFC300" id="路径" d="M948.425498,867.510782 C950.32337,866.226165 953.25794,866.10632 955.351976,867.227911 C957.446012,868.349503 958.080419,870.380937 956.84937,872.022713 C950.095094,880.885434 939.660118,887.143052 925.544441,890.795568 C913.553705,893.910949 912.149726,892.326401 921.332505,886.041926 L948.425498,867.510782 Z"></path>
                <path fill="#FFC300" id="路径" d="M976.087671,867.671922 L982.690165,875.728942 L934.309821,905.378773 C930.05994,907.957019 926.303349,907.634738 923.040047,904.41193 C918.638384,899.953713 911.884109,898.50345 902.77722,900.06114 C897.692541,900.974269 894.770748,899.577719 894.01184,895.87149 C893.860059,895.119502 893.822114,894.39437 893.898004,893.696095 C893.973895,892.245831 894.960475,891.305846 896.857743,890.876138 C910.669857,887.760757 920.156199,889.587015 925.316769,896.354911 C928.352398,900.329707 932.071044,900.678845 936.472707,897.402324 L976.087671,867.671922 Z"></path>
            </g>
        </g>
    </g>
</svg>