<?xml version="1.0" standalone="no"?><!DOCTYPE svg PUBLIC "-//W3C//DTD SVG 1.1//EN" "http://www.w3.org/Graphics/SVG/1.1/DTD/svg11.dtd"><svg t="1701413552037" class="icon" viewBox="0 0 1024 1024" version="1.1" xmlns="http://www.w3.org/2000/svg" p-id="1461" xmlns:xlink="http://www.w3.org/1999/xlink" width="200" height="200"><path d="M548.544 867.072c-60.096 0-115.264-18.752-150.784-46.784-18.048 4.992-41.152 13.12-55.68 23.168-12.48 8.576-10.88 17.28-8.704 20.864 9.856 15.488 169.216 9.856 215.168 5.056v-2.304z" fill="#FAAD08" p-id="1462"></path><path d="M537.728 867.072c60.16 0 115.328-18.752 150.848-46.784 18.048 4.992 41.088 13.12 55.68 23.168 12.48 8.576 10.88 17.28 8.64 20.864-9.856 15.488-169.152 9.856-215.168 5.056v-2.304z" fill="#FAAD08" p-id="1463"></path><path d="M538.112 505.024a852.288 852.288 0 0 0 205.12-26.496c6.4-1.728 9.792-4.8 9.792-4.8 0-0.832 0.448-15.68 0.448-23.36C753.472 321.472 691.072 192 537.728 192s-215.68 129.472-215.68 258.368c0 7.68 0.32 22.528 0.384 23.36 0 0 2.752 2.88 7.872 4.288 24.832 6.72 105.6 26.304 207.04 27.008h0.768zM810.432 613.952a1100.544 1100.544 0 0 0-22.784-64.256s-4.864-0.64-7.296 0.064c-75.52 21.952-167.04 35.84-236.8 35.072H542.72c-69.376 0.832-160.32-12.992-235.52-34.688-2.944-0.832-8.64-0.448-8.64-0.448-8.384 21.888-16.64 44.736-22.784 64.256-29.056 93.312-19.648 131.904-12.48 132.8 15.36 1.856 59.84-70.272 59.84-70.272 0 73.28 66.24 185.728 217.92 186.752h4.032c151.68-1.024 217.92-113.472 217.92-186.752 0 0 44.48 72.128 59.84 70.272 7.168-0.896 16.64-39.488-12.48-132.8" fill="#000000" p-id="1464"></path><path d="M491.008 386.816c-20.928 0.96-38.784-22.592-39.872-52.48-1.152-29.888 14.848-54.912 35.84-55.808 20.864-0.96 38.72 22.592 39.872 52.48 1.152 29.888-14.912 54.912-35.84 55.808m155.008-52.48c-1.088 29.888-19.008 53.44-39.936 52.48-20.864-0.96-36.928-25.92-35.776-55.808 1.152-29.888 19.008-53.44 39.936-52.48 20.928 0.896 36.928 25.92 35.84 55.808" fill="#FFFFFF" p-id="1465"></path><path d="M678.208 425.6c-5.504-13.184-60.8-27.904-129.28-27.904h-0.704c-68.48 0-123.776 14.72-129.28 27.904a4.672 4.672 0 0 0 0.32 4.416c4.672 7.296 66.048 43.52 128.96 43.52h0.704c62.912 0 124.288-36.224 128.896-43.52a4.736 4.736 0 0 0 0.384-4.416" fill="#FAAD08" p-id="1466"></path><path d="M515.968 343.488c0.96 13.248-5.504 24.96-14.464 26.24-8.96 1.28-16.896-8.384-17.856-21.568-0.96-13.248 5.504-24.96 14.464-26.24 8.96-1.28 16.896 8.384 17.92 21.568m54.784 6.592c1.92-3.392 14.848-21.376 41.664-14.848 7.04 1.728 10.368 4.288 11.008 5.248 1.024 1.472 1.28 3.584 0.256 6.4-1.984 5.568-6.208 5.44-8.576 4.352-1.472-0.704-20.16-13.184-37.44 5.44-1.152 1.28-3.264 1.728-5.312 0.192-1.984-1.536-2.816-4.608-1.6-6.784" fill="#000000" p-id="1467"></path><path d="M543.488 587.52h-0.704c-47.68 0.512-105.472-5.632-161.472-16.448-4.8 27.2-7.68 61.376-5.184 102.144 6.272 103.04 68.672 167.808 165.12 168.768h3.84c96.384-0.96 158.848-65.728 165.12-168.768a435.456 435.456 0 0 0-5.184-102.144c-56 10.816-113.856 17.024-161.536 16.448" fill="#FFFFFF" p-id="1468"></path><path d="M407.68 581.888v103.104s48.768 9.536 97.536 2.944V592.832a924.8 924.8 0 0 1-97.536-10.944" fill="#EB1C26" p-id="1469"></path><path d="M756.352 473.536s-91.52 30.272-212.864 31.168h-0.64C421.632 503.808 330.24 473.6 329.92 473.536l-30.656 80.192c76.672 24.256 171.648 39.872 243.456 38.976h0.704c71.872 0.896 166.848-14.72 243.456-38.976L756.352 473.6z" fill="#EB1C26" p-id="1470"></path></svg>